# AST/ASF file generated using VICON BodyLanguage
# -----------------------------------------------
:version 1.10
:name VICON
:units
  mass 1.0
  length 0.45
  angle deg
:documentation
   .ast/.asf automatically generated from VICON data using
   VICON BodyBuilder and BodyLanguage model FoxedUp or BRILLIANT.MOD
:root
   order TX TY TZ RX RY RZ
   axis XYZ
   position 0 0 0  
   orientation 0 0 0 
:bonedata
  begin
     id 1 
     name lhipjoint
     direction 0.64773 -0.699417 0.302095 
     length 2.48597 
     axis 0 0 0  XYZ
  end
  begin
     id 2 
     name lfemur
     direction 0.34202 -0.939693 0  
     length 6.71947  
     axis 0 0 20  XYZ
    dof rx ry rz
    limits (-160.0 20.0)
           (-70.0 70.0)
           (-60.0 70.0)
  end
  begin
     id 3 
     name ltibia
     direction 0.34202 -0.939693 0   
     length 8.08777   
     axis 0 0 20   XYZ
    dof rx
    limits (-10.0 170.0)
  end
  begin
     id 4 
     name lfoot
     direction 0.0808503 -0.222134 0.971658   
     length 2.08264   
     axis -90 7.62852e-016 20   XYZ
    dof rx rz
    limits (-45.0 90.0)
           (-70.0 20.0)
  end
  begin
     id 5 
     name ltoes
     direction 1.53502e-011 -4.22007e-011 1   
     length 1.04662   
     axis -90 7.62852e-016 20   XYZ
    dof rx
    limits (-90.0 20.0)
  end
  begin
     id 6 
     name rhipjoint
     direction -0.610924 -0.726792 0.313919   
     length 2.39233  
     axis 0 0 0  XYZ 
  end
  begin
     id 7 
     name rfemur
     direction -0.34202 -0.939693 0   
     length 6.96955   
     axis 0 0 -20   XYZ
    dof rx ry rz
    limits (-160.0 20.0)
           (-70.0 70.0)
           (-70.0 60.0)
  end
  begin
     id 8 
     name rtibia
     direction -0.34202 -0.939693 0   
     length 8.19584   
     axis 0 0 -20   XYZ
    dof rx
    limits (-10.0 170.0)
 end
 begin
     id 9 
     name rfoot
     direction -0.077777 -0.213691 0.9738   
     length 2.07539  
     axis -90 -7.62852e-016 -20   XYZ
    dof rx rz
    limits (-45.0 90.0)
           (-20.0 70.0)
  end
  begin
     id 10 
     name rtoes
     direction -1.53558e-011 -4.22006e-011 1   
     length 1.04381   
     axis -90 -7.62852e-016 -20   XYZ
    dof rx
    limits (-90.0 20.0)
  end
  begin
     id 11 
     name lowerback
     direction -0.00971646 0.996074 0.0879841   
     length 1.67643   
     axis 0 0 0   XYZ
    dof rx ry rz
    limits (-20.0 45.0)
           (-30.0 30.0)
           (-30.0 30.0)
  end
  begin
     id 12 
     name upperback
     direction 0.0127391 0.991676 0.128127   
     length 1.63741   
     axis 0 0 0   XYZ
    dof rx ry rz
    limits (-20.0 45.0)
           (-30.0 30.0)
           (-30.0 30.0)
  end
  begin
     id 13 
     name thorax
     direction 0.0167583 0.996049 0.0872067   
     length 1.65931   
     axis 0 0 0   XYZ
    dof rx ry rz
    limits (-20.0 45.0)
           (-30.0 30.0)
           (-30.0 30.0)
  end
  begin
     id 14 
     name lowerneck
     direction -0.0317829 0.998312 0.0486079   
     length 1.79021   
     axis 0 0 0   XYZ
    dof rx ry rz
    limits (-20.0 45.0)
           (-30.0 30.0)
           (-30.0 30.0)
  end
  begin
     id 15 
     name upperneck
     direction 0.0896851 0.972452 -0.215159   
     length 1.78797   
     axis 0 0 0   XYZ
    dof rx ry rz
    limits (-20.0 45.0)
           (-30.0 30.0)
           (-30.0 30.0)
  end
  begin
     id 16
     name head
     direction 0.0310949 0.996503 -0.0775582  
     length 1.81549  
     axis 0 0 0   XYZ
    dof rx ry rz
    limits (-20.0 45.0)
           (-30.0 30.0)
           (-30.0 30.0)
  end
  begin
     id 17 
     name lclavicle
     direction 0.853638 0.502051 -0.138733  
     length 3.31627  
     axis 0 0 0   XYZ
    dof ry rz
    limits (-20.0 10.0)
           (0.0 20.0)
  end
  begin
     id 18 
     name lhumerus
     direction 1 -4.48962e-011 -1.41788e-018   
     length 5.54893   
     axis 180 -30 -90   XYZ
    dof rx ry rz
    limits (-60.0 90.0)
           (-90.0 90.0)
           (-90.0 90.0)
  end
  begin
     id 19
     name lradius
     direction 1 -4.48962e-011 -4.95754e-027   
     length 3.02898   
     axis 180 -30 -90   XYZ
    dof rx
    limits (-10.0 170.0)
  end
  begin
     id 20
     name lwrist
     direction 1 -4.48952e-011 -1.03764e-026   
     length 1.51449   
     axis 9.09556e-015 90 90   XYZ
    dof ry
    limits (-180.0 0.0)
 end
  begin
     id 21 
     name lhand
     direction 1 -4.4902e-011 -2.07528e-026   
     length 0.640951   
     axis 1.3242e-014 90 90   XYZ
    dof rx rz
    limits (-90.0 90.0)
           (-45.0 45.0)
  end
  begin
     id 22 
     name lfingers
     direction 1 -4.49014e-011 -4.15056e-026   
     length 0.516751   
     axis 2.64841e-014 90 90   XYZ
    dof rx
    limits (0.0 90.0)
  end
  begin
     id 23
     name lthumb
     direction 0.707107 -6.35008e-011 0.707107   
     length 0.741954   
     axis -90 45 2.85299e-015   XYZ
    dof rx rz
    limits (-45.0 45.0)
           (-45.0 45.0)
  end
  begin
     id 24 
     name rclavicle
     direction -0.888531 0.455324 -0.0565039   
     length 3.20126  
     axis 0 0 0   XYZ 
    dof ry rz
    limits (-10.0 20.0)
           (-20.0 0.0)
  end
  begin
     id 25 
     name rhumerus
     direction -1 -4.48946e-011 -8.98298e-028  
     length 5.3519   
     axis 180 30 90   XYZ
    dof rx ry rz
    limits (-90.0 60.0)
           (-90.0 90.0)
           (-90.0 90.0)
  end
  begin
     id 26 
     name rradius
     direction -1 -4.4899e-011 -3.18779e-027   
     length 3.02531   
     axis 180 30 90   XYZ
    dof rx
    limits (-10.0 170.0)
  end
  begin
     id 27 
     name rwrist
     direction -1 -4.4897e-011 -1.03764e-026   
     length 1.51266   
     axis 9.09556e-015 -90 -90   XYZ
    dof ry
    limits (-180.0 0.0)
  end
  begin
     id 28
     name rhand
     direction -1 -4.48941e-011 -2.07528e-026   
     length 0.78389   
     axis 1.3242e-014 -90 -90   XYZ
    dof rx rz
    limits (-90.0 90.0)
           (-45.0 45.0)
  end
  begin
     id 29
     name rfingers
     direction -1 -4.49012e-011 -4.15056e-026   
     length 0.631992   
     axis 2.64841e-014 -90 -90   XYZ
    dof rx
    limits (0.0 90.0)
  end
  begin
     id 30
     name rthumb
     direction -0.707107 -6.3496e-011 0.707107   
     length 0.907418   
     axis -90 -45 -2.85299e-015   XYZ
    dof rx rz
    limits (-45.0 45.0)
           (-45.0 45.0)
  end
:hierarchy
  begin
    root lhipjoint rhipjoint lowerback
    lhipjoint lfemur
    lfemur ltibia
    ltibia lfoot
    lfoot ltoes
    rhipjoint rfemur
    rfemur rtibia
    rtibia rfoot
    rfoot rtoes
    lowerback upperback
    upperback thorax
    thorax lowerneck lclavicle rclavicle
    lowerneck upperneck
    upperneck head
    lclavicle lhumerus
    lhumerus lradius
    lradius lwrist
    lwrist lhand lthumb
    lhand lfingers
    rclavicle rhumerus
    rhumerus rradius
    rradius rwrist
    rwrist rhand rthumb
    rhand rfingers
  end

#!OML:ASF E:\Style3\Style3.ASF
:FULLY-SPECIFIED
:DEGREES
668
root 1.18736 17.7529 0.504694 -172.214 82.5113 172.722
lowerback -12.8073 -3.48341 -1.98102
upperback -8.0061 -3.93113 -1.50872
thorax -1.20721 -1.73579 -0.913379
lowerneck -12.2774 -2.47679 -3.30099
upperneck 29.9229 -5.3911 11.5836
head 12.3369 -0.967683 4.32138
rclavicle 3.25013e-014 2.38542e-014
rhumerus -1.04591 53.1756 5.4029
rradius 37.651
rwrist 21.3326
rhand -2.57027 32.0889
rfingers 7.12502
rthumb 23.1263 3.45698
lclavicle 3.25013e-014 2.38542e-014
lhumerus -86.0872 -38.9065 108.462
lradius 82.1075
lwrist 14.7906
lhand 11.4518 16.8042
lfingers 7.12502
lthumb 36.502 42.9958
rfemur -8.72157 11.5797 18.6265
rtibia 12.9222
rfoot -19.7882 -28.5943
rtoes -8.43011
lfemur -4.86961 -27.1543 -14.5445
ltibia 1.74931e-014
lfoot -8.75964 26.0302
ltoes -21.5952
669
root 1.18143 17.7538 0.5092 -171.922 82.409 173.11
lowerback -12.7124 -3.48785 -1.84214
upperback -7.86612 -3.96424 -1.53051
thorax -1.12097 -1.76407 -1.01564
lowerneck -12.2595 -2.52242 -3.42169
upperneck 29.646 -5.45233 11.7016
head 12.2341 -1.00939 4.36477
rclavicle 1.28216e-014 3.18055e-015
rhumerus -3.1225 56.4731 3.14923
rradius 39.96
rwrist 19.557
rhand -2.42706 32.3135
rfingers 7.12502
rthumb 23.2637 3.69883
lclavicle 1.28216e-014 3.18055e-015
lhumerus -86.1102 -39.1175 108.486
lradius 82.2007
lwrist 14.6485
lhand 11.3596 16.652
lfingers 7.12502
lthumb 36.4147 42.8656
rfemur -8.62379 11.6377 18.7214
rtibia 12.9268
rfoot -19.7826 -28.7224
rtoes -8.40026
lfemur -4.80673 -27.2547 -14.4981
ltibia -7.95139e-015
lfoot -8.79018 26.068
ltoes -21.4761
670
root 1.17337 17.7535 0.513958 -172.37 82.2788 172.792
lowerback -12.5407 -3.42151 -1.76358
upperback -7.69805 -3.89955 -1.66695
thorax -1.05018 -1.74376 -1.18844
lowerneck -12.3327 -2.64626 -3.4517
upperneck 29.3883 -5.65825 11.8479
head 12.1737 -1.09715 4.38449
rclavicle -2.34566e-014 -7.15625e-015
rhumerus -6.21961 59.31 -0.0806746
rradius 42.326
rwrist 18.227
rhand -2.13384 32.4604
rfingers 7.12502
rthumb 23.545 3.88159
lclavicle -2.34566e-014 -7.15625e-015
lhumerus -86.1732 -39.6018 108.582
lradius 82.3456
lwrist 14.5019
lhand 11.2866 16.7536
lfingers 7.12502
lthumb 36.3456 42.9844
rfemur -8.48038 11.6477 18.7223
rtibia 12.9107
rfoot -19.751 -28.8339
rtoes -8.56795
lfemur -4.71685 -27.4011 -14.5669
ltibia -2.38542e-014
lfoot -8.91057 26.1099
ltoes -21.1525
671
root 1.16449 17.7533 0.51934 -172.875 82.1214 172.399
lowerback -12.4241 -3.3401 -1.7134
upperback -7.51976 -3.80853 -1.80545
thorax -0.936942 -1.70873 -1.34812
lowerneck -12.479 -2.76977 -3.51843
upperneck 29.1256 -5.87653 12.0723
head 12.1333 -1.1829 4.43969
rclavicle 1.15295e-014 7.95139e-016
rhumerus -9.87307 61.7998 -3.97933
rradius 44.4755
rwrist 17.4446
rhand -2.37419 32.7478
rfingers 7.12502
rthumb 23.3145 4.13953
lclavicle 1.15295e-014 7.95139e-016
lhumerus -86.2564 -40.1863 108.754
lradius 82.4706
lwrist 14.4167
lhand 11.1802 16.8157
lfingers 7.12502
lthumb 36.2449 43.0717
rfemur -8.36008 11.5228 18.7125
rtibia 12.898
rfoot -19.6339 -28.9049
rtoes -8.77048
lfemur -4.66357 -27.5738 -14.6302
ltibia 7.95139e-015
lfoot -8.85678 26.1401
ltoes -20.8892
672
root 1.154 17.7547 0.524637 -173.184 81.9212 172.198
lowerback -12.252 -3.29668 -1.66116
upperback -7.38786 -3.76939 -1.89157
thorax -0.899248 -1.69743 -1.45626
lowerneck -12.4742 -2.8717 -3.65818
upperneck 28.7899 -6.03542 12.2947
head 12.0279 -1.25832 4.51096
rclavicle -2.33572e-014 -1.19271e-014
rhumerus -13.802 64.0192 -8.32189
rradius 46.5836
rwrist 16.4357
rhand -2.49154 32.9795
rfingers 7.12502
rthumb 23.2019 4.35705
lclavicle -2.33572e-014 -1.19271e-014
lhumerus -86.3615 -40.6298 108.953
lradius 82.5524
lwrist 14.3837
lhand 11.09 16.8766
lfingers 7.12502
lthumb 36.1594 43.1538
rfemur -8.27212 11.4126 18.7355
rtibia 12.9601
rfoot -19.6696 -28.9695
rtoes -8.50201
lfemur -4.62581 -27.7843 -14.6549
ltibia 1.11319e-014
lfoot -8.7752 26.1838
ltoes -20.7047
673
root 1.14432 17.7559 0.529393 -173.568 81.7418 171.934
lowerback -12.0305 -3.26575 -1.62974
upperback -7.29442 -3.74565 -1.95847
thorax -0.926081 -1.6918 -1.53091
lowerneck -12.3569 -2.98014 -3.7638
upperneck 28.5127 -6.17928 12.4036
head 11.9158 -1.33756 4.53689
rclavicle -8.44835e-015 1.59028e-015
rhumerus -18.0777 65.8955 -13.144
rradius 48.6827
rwrist 15.4241
rhand -2.53426 33.095
rfingers 7.12502
rthumb 23.1609 4.46733
lclavicle -8.44835e-015 1.59028e-015
lhumerus -86.5326 -40.9609 109.158
lradius 82.6624
lwrist 14.3358
lhand 10.9972 16.8051
lfingers 7.12502
lthumb 36.0716 43.104
rfemur -8.17411 11.2673 18.7488
rtibia 13.0341
rfoot -19.725 -28.9898
rtoes -8.77327
lfemur -4.57243 -27.9776 -14.7072
ltibia 2.8625e-014
lfoot -8.74035 26.2371
ltoes -20.598
674
root 1.1349 17.7564 0.534861 -174.35 81.5464 171.227
lowerback -11.8428 -3.25126 -1.68475
upperback -7.22816 -3.73107 -2.03905
thorax -0.959181 -1.68666 -1.57379
lowerneck -12.2534 -3.08205 -3.82806
upperneck 28.2787 -6.31225 12.4636
head 11.8203 -1.41105 4.54045
rclavicle -4.59193e-014 -1.59028e-014
rhumerus -22.9408 67.4952 -18.6338
rradius 50.6944
rwrist 14.5629
rhand -2.84686 33.0857
rfingers 7.12502
rthumb 22.8609 4.42073
lclavicle -4.59193e-014 -1.59028e-014
lhumerus -86.7211 -41.2351 109.363
lradius 82.7759
lwrist 14.3503
lhand 10.7886 16.9144
lfingers 7.12502
lthumb 35.874 43.2618
rfemur -8.12665 11.0647 18.6763
rtibia 13.1103
rfoot -19.8515 -28.9032
rtoes -8.75923
lfemur -4.58262 -28.1916 -14.8112
ltibia -6.36111e-015
lfoot -8.51617 26.3155
ltoes -21.0047
675
root 1.12515 17.7567 0.541658 -174.901 81.3653 170.745
lowerback -11.6552 -3.21748 -1.7043
upperback -7.15641 -3.69492 -2.12139
thorax -0.988592 -1.67209 -1.63615
lowerneck -12.261 -3.16971 -3.88951
upperneck 28.1132 -6.43881 12.5514
head 11.7763 -1.47154 4.55912
rclavicle -1.14301e-014 1.03368e-014
rhumerus -28.3603 68.7844 -24.7647
rradius 52.6552
rwrist 13.6707
rhand -3.17753 33.2416
rfingers 7.12502
rthumb 22.5436 4.53775
lclavicle -1.14301e-014 1.03368e-014
lhumerus -86.8613 -41.4992 109.478
lradius 82.8947
lwrist 14.2675
lhand 10.8318 16.9928
lfingers 7.12502
lthumb 35.9149 43.3302
rfemur -8.08459 10.9738 18.6345
rtibia 13.1691
rfoot -19.9292 -28.9512
rtoes -8.52657
lfemur -4.59069 -28.3847 -14.8734
ltibia -6.36111e-015
lfoot -8.48314 26.4025
ltoes -21.1075
676
root 1.11985 17.7565 0.550231 -175.33 81.2428 170.442
lowerback -11.4684 -3.1611 -1.73482
upperback -7.05391 -3.63017 -2.17082
thorax -0.981807 -1.6435 -1.65631
lowerneck -12.2831 -3.25372 -4.05958
upperneck 27.9227 -6.5494 12.6981
head 11.7298 -1.53081 4.62097
rclavicle -2.26615e-014 -1.98785e-014
rhumerus -34.079 69.7212 -31.2064
rradius 54.6128
rwrist 12.8121
rhand -3.5554 33.5352
rfingers 7.12502
rthumb 22.1808 4.7878
lclavicle -2.26615e-014 -1.98785e-014
lhumerus -86.9938 -41.7159 109.637
lradius 82.9621
lwrist 14.1791
lhand 10.8579 16.9089
lfingers 7.12502
lthumb 35.9396 43.2402
rfemur -7.96677 10.9556 18.6425
rtibia 13.2145
rfoot -19.8679 -29.0737
rtoes -8.50802
lfemur -4.48736 -28.5197 -14.9499
ltibia 1.43125e-014
lfoot -8.54064 26.4649
ltoes -20.9265
677
root 1.11678 17.7578 0.559851 -175.416 81.1192 170.482
lowerback -11.3121 -3.10407 -1.7324
upperback -6.93385 -3.5679 -2.17943
thorax -0.939613 -1.61715 -1.65502
lowerneck -12.3704 -3.34249 -4.25762
upperneck 27.7495 -6.65355 12.8072
head 11.7028 -1.5931 4.6746
rclavicle -6.95746e-015 -1.03368e-014
rhumerus -39.9585 70.3954 -37.8009
rradius 56.6133
rwrist 12.1761
rhand -3.8258 33.7672
rfingers 7.12502
rthumb 21.9212 4.98915
lclavicle -6.95746e-015 -1.03368e-014
lhumerus -87.0365 -41.949 109.783
lradius 83.0194
lwrist 14.1728
lhand 10.7512 16.8062
lfingers 7.12502
lthumb 35.8385 43.1622
rfemur -7.84594 11.0492 18.7018
rtibia 13.2404
rfoot -19.9404 -29.199
rtoes -8.35171
lfemur -4.3858 -28.6518 -14.9787
ltibia 1.59028e-015
lfoot -8.39297 26.6025
ltoes -21.0533
678
root 1.11281 17.7601 0.567329 -175.717 80.9463 170.254
lowerback -11.1709 -3.04085 -1.71646
upperback -6.83431 -3.49546 -2.23216
thorax -0.914545 -1.5857 -1.70635
lowerneck -12.4884 -3.46519 -4.37539
upperneck 27.5795 -6.80445 12.8339
head 11.683 -1.67682 4.67518
rclavicle 4.67144e-014 6.36111e-015
rhumerus -46.2143 70.7165 -44.7572
rradius 58.7427
rwrist 11.9322
rhand -3.89807 33.8287
rfingers 7.12502
rthumb 21.8518 5.04249
lclavicle 4.67144e-014 6.36111e-015
lhumerus -87.1055 -42.2797 109.964
lradius 83.0491
lwrist 14.1369
lhand 10.619 16.6875
lfingers 7.12502
lthumb 35.7132 43.074
rfemur -7.75911 11.0706 18.6979
rtibia 13.2588
rfoot -20.0977 -29.2704
rtoes -7.96959
lfemur -4.34263 -28.8338 -15.0318
ltibia 7.95139e-015
lfoot -8.24226 26.7101
ltoes -21.3764
679
root 1.1079 17.7614 0.573291 -176.18 80.7626 169.788
lowerback -11.0575 -2.977 -1.6961
upperback -6.7761 -3.41849 -2.31259
thorax -0.919804 -1.55083 -1.78893
lowerneck -12.673 -3.60724 -4.45505
upperneck 27.4621 -6.98671 12.8219
head 11.6986 -1.77082 4.65183
rclavicle -9.19379e-015 -1.03368e-014
rhumerus -52.6623 70.8185 -51.9498
rradius 60.8526
rwrist 11.8458
rhand -3.89427 33.8457
rfingers 7.12502
rthumb 21.8555 5.06
lclavicle -9.19379e-015 -1.03368e-014
lhumerus -87.2437 -42.6379 110.185
lradius 83.0499
lwrist 14.1185
lhand 10.276 16.5265
lfingers 7.12502
lthumb 35.3881 42.9911
rfemur -7.74399 10.9585 18.6377
rtibia 13.2658
rfoot -20.0807 -29.336
rtoes -8.34808
lfemur -4.40686 -29.0227 -15.0757
ltibia -3.18055e-015
lfoot -8.10058 26.7738
ltoes -21.8129
